<?xml version="1.0" encoding="utf-8"?>

<!DOCTYPE svg PUBLIC "-//W3C//DTD SVG 1.1//EN" "http://www.w3.org/Graphics/SVG/1.1/DTD/svg11.dtd">
<svg version="1.1"
	 id="Layer_1" text-rendering="geometricPrecision" shape-rendering="geometricPrecision" image-rendering="optimizeQuality"
	 xmlns="http://www.w3.org/2000/svg" xmlns:xlink="http://www.w3.org/1999/xlink" x="0px" y="0px"
	 viewBox="684.4171 105.2622 1191.583 1387.323" enable-background="new 684.4171 105.2622 1191.583 1387.323" xml:space="preserve"
	>
<g id="Layer_x0020_1">
	<g id="_777895552">
		<path d="M1592,179c0,2,11,10,23,17c11,7,36,24,54,38c37,29,43,24,8-9l-24-22l29,16c16,9,32,19,36,22c28,22,50,48,65,74
			c15,28,16,30,16,66v38l-58,133c-32,73-60,139-63,146s-18,40-33,75l-27,62l-35-1c-19-1-36-4-37-6c-1-3,1-9,5-15c4-5,8-13,8-17
			c0-3,3-10,6-14c4-5,7-12,7-17c0-4,3-12,8-18s8-14,8-17c0-5,3-11,7-16c3-4,6-11,6-16c0-4,3-11,7-15c3-4,7-13,7-18c1-6,5-14,9-17
			c4-5,6-12,5-17c-1-6,1-11,6-14c4-2,8-9,8-14c0-6,2-13,6-15c3-3,6-9,6-14c0-4,4-13,8-19c5-5,9-14,9-19s3-13,6-17s6-11,6-15
			s3-9,6-12s7-10,8-16c3-11,10-28,22-52c3-6,6-14,6-19s3-10,7-14c4-3,5-9,5-17c-2-6,0-14,3-16c7-6,7-18,1-30c-3-5-5-15-4-22
			c0-7-2-15-5-19c-9-11-46-32-99-56c-46-21-50-21-54-14c-5,10-5,12,0,12c3,0,35,14,73,30c54,23,69,31,72,40c3,6,5,11,4,11
			c-1,1-36-14-80-33c-74-32-80-34-83-27c-2,5-3,9-2,10c1,0,38,17,83,36c44,19,83,36,84,38c2,1,3,6,2,11c-1,8-7,6-82-27
			c-45-19-85-36-88-39c-6-3-9-2-13,5c-2,4-3,9-2,9c0,1,39,18,86,38c99,42,97,41,94,49c-2,5-10,3-47-13c-121-54-139-60-143-54
			c-2,3-4,7-4,8s41,20,92,42c50,21,92,40,92,41s-2,5-4,8c-3,5-22-2-96-34c-85-37-92-39-95-31c-1,4-1,8,0,9c0,1,41,19,90,40
			c50,21,90,39,91,39c2,3-4,15-8,15c-3,0-148-61-171-73c-11-5-12-5-16,3c-3,5-4,9-3,9c1,1,42,19,91,39c49,21,90,40,90,42
			c1,1,0,5-2,9c-4,5-21-1-96-34c-51-22-92-38-92-36c0,1-1,6-2,9c-2,4,23,16,89,45c51,21,92,40,92,41s-2,5-4,8c-3,5-21-1-96-34
			c-87-38-92-39-96-32s-2,9,13,16c10,4,52,22,93,40c42,18,76,33,76,33c1,1-1,4-4,8c-5,7-10,6-80-24c-41-18-83-36-91-40
			c-9-4-17-8-17-7c-1,1-2,5-4,9c-2,8,8,13,89,48c50,21,92,40,92,42s-2,5-4,6c-3,2-73-27-182-75c-4-2-12,15-9,17c1,0,41,18,91,39
			c49,20,90,39,90,41c1,1,0,6-3,9c-3,5-11,2-182-73c-5-2-11,11-7,15c2,2,43,21,91,41c83,36,92,42,82,52c-2,2-44-15-94-37
			c-50-21-92-39-92-38c-1,0-2,4-3,9c-1,6,13,14,88,46c50,21,90,40,91,42c0,2-1,6-3,9c-2,4-24-3-94-34c-85-36-92-39-95-31
			c-2,4-3,9-2,9c0,1,41,18,89,38c48,21,89,39,91,40c1,1,0,5-2,9c-5,6-15,3-95-32c-82-35-90-38-95-32s-2,9,27,22c18,8,59,26,91,40
			c33,13,59,26,60,28c0,17-8,14-98-25c-67-29-92-38-95-34c-1,3-2,7-2,9c1,2,42,21,91,42c49,22,89,40,88,42c-4,14,8,17-112-35
			c-70-31-76-32-79-25c-1,5-1,9-1,9c1,1,42,19,91,40s90,39,91,40c0,0-2,4-5,7c-4,7-12,4-95-32c-85-36-91-39-95-31c-2,4-3,8-1,9
			s41,18,89,38c47,20,87,39,89,40c2,3,2,6-1,9s-25-4-78-28c-42-18-82-36-91-39c-15-8-15-8-20,1c-2,4-4,8-3,9c1,0,41,18,90,38
			c83,36,90,38,104,34c15-4,65-2,82,3c8,2,18-19,100-211c51-117,94-221,97-232c18-81-63-188-167-221c-32-10-52-14-52-9H1592z"/>
		<path d="M1425,194c-6,14-98,216-149,325c-8,18-26,58-40,88c-14,31-26,55-28,54s-178-216-284-349c-23-29-42-52-43-52s3,14,7,30
			c26,92,119,250,252,426l29,38l-45,99c-25,55-46,100-47,101c0,1-7-4-14-12c-22-21-48-31-86-33c-40-2-62,3-102,23
			c-137,68-175,259-65,325c90,55,230-8,280-125c5-12,28-60,52-107c23-48,51-108,63-134s23-49,25-51c1-1,12,9,23,23
			c24,31,159,192,173,208c6,6,18,26,27,44c42,84,135,137,219,126c45-6,83-33,102-72c13-27,18-77,11-111c-12-54-55-116-103-148
			c-84-55-188-45-231,22l-12,18l-39-49c-22-27-60-74-84-104l-45-55l16-37c97-233,150-413,146-499l-1-29L1425,194L1425,194z
			 M1413,287c-4,30-17,82-25,105c-2,6-8,27-14,48c-14,44-56,158-88,235c-12,31-23,60-23,66s7,19,16,29c9,11,18,22,21,26
			c2,3,19,24,37,46s42,52,53,66s27,33,35,41l15,15l8-12c32-42,62-60,105-63c92-8,187,63,217,160c8,27,7,77-2,102c-9,27-33,53-57,65
			c-44,22-118,15-166-17c-34-22-68-59-84-93c-8-16-18-34-23-40c-5-5-14-16-20-22c-26-30-82-96-123-148c-42-52-59-71-64-71
			c-6,0-16,17-36,60c-13,27-23,50-23,51s-20,42-45,92s-50,103-57,117c-30,65-110,117-181,118c-55,1-95-21-118-64c-9-16-10-24-10-68
			c0-49,1-50,16-82c38-79,125-133,201-127c29,2,65,17,83,33c6,7,13,12,15,12c6,0,15-15,29-46c7-17,21-47,30-67c41-87,45-96,42-103
			c-2-4-16-25-32-47c-102-135-207-306-229-371l-7-18l9,10c5,6,14,16,20,23s21,25,34,42c31,40,91,115,100,124c5,4,8,8,8,10
			s6,10,14,18c12,13,31,36,61,75c50,64,51,65,63,51c4-4,26-51,50-103c125-274,147-320,149-315C1418,253,1416,270,1413,287L1413,287z
			"/>
		<path d="M1201,736c-11,14-11,26,1,40c15,17,26,18,40,4c16-16,17-33,3-46C1232,721,1212,722,1201,736z M1242,746c11,18-17,39-32,24
			c-8-8-6-23,4-30S1235,735,1242,746z"/>
		<path d="M1573,948c-6,6-51,107-57,126c-4,11,20,49,43,67c55,44,119,48,147,8c8-11,10-20,11-48c1-31,0-36-11-60c-7-14-22-36-33-48
			C1638,957,1585,934,1573,948L1573,948z M1621,968c43,19,83,77,87,124c2,28-9,54-28,64c-32,17-89,0-125-36c-33-34-33-32-6-95
			c13-31,25-60,28-64C1581,953,1592,955,1621,968L1621,968z"/>
		<path d="M934,979c-61,19-116,87-120,148c-2,28,4,46,24,66c41,43,136,6,179-69c13-23,30-73,30-88c0-10-27-43-44-53
			C990,975,955,973,934,979z M996,994c7,3,19,14,27,23l14,17l-10,34c-6,19-14,42-20,51c-14,24-48,55-74,66c-29,14-68,15-84,2
			c-54-43-7-158,79-192C949,986,981,986,996,994L996,994z"/>
		<path d="M1355,803c0,11,28,31,70,49s48,20,58,15s9-6-49-31c-33-14-64-29-69-31C1359,802,1355,801,1355,803L1355,803z"/>
		<path d="M1419,882c19,18,20,19,28,11c8-7,8-7-17-19c-15-6-27-12-29-12C1400,862,1408,871,1419,882z"/>
		<path d="M1270,932c-5,6-2,12,10,17l12,4l-9-12C1273,927,1274,928,1270,932L1270,932z"/>
		<path d="M1258,963c-2,7,1,10,12,14c8,4,25,11,38,17s24,10,25,9c3-4-27-29-47-38c-13-6-24-11-25-11C1261,954,1259,958,1258,963
			L1258,963z"/>
		<path d="M1246,992c0,2-1,6-1,8c0,4,139,68,142,65c1,0-6-8-14-16c-11-10-33-23-70-38C1242,985,1247,986,1246,992z"/>
		<path d="M1229,1029c-2,7,1,10,15,16c9,4,51,21,91,38c41,17,74,33,74,36c0,16-8,14-98-25c-66-29-92-38-94-34c-2,2-3,6-2,8
			c1,4,108,52,166,76c14,5,15,7,12,14c-4,7-11,5-95-31c-50-22-92-39-93-39c-2,0-4,3-5,7c-2,8,8,13,137,68c24,10,43,20,43,22
			c0,16-9,14-98-25c-70-30-92-38-94-34c-2,3-3,7-3,9c1,3,94,44,155,68c29,12,30,12,24,22c-3,4-23-3-95-35c-85-36-92-39-95-31
			c-2,4-3,8-2,9s42,19,92,40c78,33,90,40,88,47c-1,4-3,8-3,8c-1,0-43-18-94-40s-93-39-94-39c-1,1-2,5-3,9c-1,6,14,14,89,46
			c50,21,91,40,91,42c0,17-8,14-98-25c-67-29-92-38-94-34c-2,3-3,7-2,9s41,21,91,42c84,37,93,43,83,53c-1,1-43-15-92-36
			c-80-35-90-38-95-33c-3,4-4,8-2,10c2,1,41,19,88,39c48,20,87,37,88,38s-1,5-5,8c-5,5-16,2-93-32c-67-28-87-36-90-32c-2,3-3,7-2,9
			c0,2,37,19,81,38c78,33,80,34,68,39s-18,3-81-24c-37-17-70-31-73-32c-2-1-6,2-9,6c-4,8,0,10,41,27c24,11,50,22,56,24
			c7,2,12,5,10,6c-2,3-70-9-100-17c-44-12-34,2,20,30c16,8,40,17,54,21c24,5,73,8,68,3c-2-1-18-6-38-10c-34-7-72-20-63-20
			c3-1,15,2,27,4c20,3,24,3,34-5c11-7,12-8,25-2c16,9,35,5,43-8c4-6,9-10,10-8c2,1,7,1,10-1c8-3,36-45,36-54c0-4,4-11,7-15
			c4-4,7-11,8-15c0-4,4-12,7-17c4-6,7-15,7-20s3-11,7-14c3-3,6-8,6-13c0-4,4-13,9-20s8-15,6-18c-1-4,0-7,4-9c3-1,7-8,8-16
			c5-27,12-27,32,3c10,15,19,28,21,28s3,3,3,7c0,7-42,110-58,142c-18,38-48,58-110,74l-38,10l34-2c40-2,70-14,96-37
			c18-17,23-26,63-119l29-68l-18-23c-10-13-24-35-30-49l-12-24l-91-39c-49-22-91-39-92-39C1232,1021,1230,1025,1229,1029L1229,1029z
			"/>
	</g>
</g>
</svg>
